<?xml version="1.0" encoding="UTF-8" standalone="no"?>
<!DOCTYPE svg PUBLIC "-//W3C//DTD SVG 1.1//EN"
 "http://www.w3.org/Graphics/SVG/1.1/DTD/svg11.dtd">
<!-- Generated by graphviz version 2.43.0 (0)
 -->
<!-- Title: %3 Pages: 1 -->
<svg width="871pt" height="638pt"
 viewBox="0.00 0.00 871.00 638.00" xmlns="http://www.w3.org/2000/svg" xmlns:xlink="http://www.w3.org/1999/xlink">
<g id="graph0" class="graph" transform="scale(1 1) rotate(0) translate(4 634)">
<title>%3</title>
<polygon fill="white" stroke="transparent" points="-4,4 -4,-634 867,-634 867,4 -4,4"/>
<!-- post_tags -->
<g id="node1" class="node">
<title>post_tags</title>
<polygon fill="none" stroke="black" points="650,-523.5 650,-551.5 849,-551.5 849,-523.5 650,-523.5"/>
<text text-anchor="start" x="711.5" y="-534.7" font-family="Helvetica,sans-Serif" font-weight="bold" font-size="16.00">post_tags</text>
<polygon fill="none" stroke="black" points="650,-498.5 650,-523.5 849,-523.5 849,-498.5 650,-498.5"/>
<text text-anchor="start" x="655" y="-508.3" font-family="Helvetica,sans-Serif" text-decoration="underline" font-size="14.00">post_id</text>
<text text-anchor="start" x="699" y="-508.3" font-family="Helvetica,sans-Serif" font-size="14.00"> [INTEGER]</text>
<text text-anchor="start" x="772" y="-508.3" font-family="Helvetica,sans-Serif" font-size="14.00"> NOT NULL</text>
<polygon fill="none" stroke="black" points="650,-473.5 650,-498.5 849,-498.5 849,-473.5 650,-473.5"/>
<text text-anchor="start" x="655" y="-483.3" font-family="Helvetica,sans-Serif" text-decoration="underline" font-size="14.00">tag_id</text>
<text text-anchor="start" x="692" y="-483.3" font-family="Helvetica,sans-Serif" font-size="14.00"> [INTEGER]</text>
<text text-anchor="start" x="765" y="-483.3" font-family="Helvetica,sans-Serif" font-size="14.00"> NOT NULL</text>
</g>
<!-- users -->
<g id="node2" class="node">
<title>users</title>
<polygon fill="none" stroke="black" points="8.5,-328.5 8.5,-356.5 253.5,-356.5 253.5,-328.5 8.5,-328.5"/>
<text text-anchor="start" x="109.5" y="-339.7" font-family="Helvetica,sans-Serif" font-weight="bold" font-size="16.00">users</text>
<polygon fill="none" stroke="black" points="8.5,-303.5 8.5,-328.5 253.5,-328.5 253.5,-303.5 8.5,-303.5"/>
<text text-anchor="start" x="13.5" y="-313.3" font-family="Helvetica,sans-Serif" text-decoration="underline" font-size="14.00">id</text>
<text text-anchor="start" x="24.5" y="-313.3" font-family="Helvetica,sans-Serif" font-size="14.00"> [INTEGER]</text>
<text text-anchor="start" x="97.5" y="-313.3" font-family="Helvetica,sans-Serif" font-size="14.00"> NOT NULL</text>
<polygon fill="none" stroke="black" points="8.5,-278.5 8.5,-303.5 253.5,-303.5 253.5,-278.5 8.5,-278.5"/>
<text text-anchor="start" x="13.5" y="-288.3" font-family="Helvetica,sans-Serif" font-size="14.00">role</text>
<text text-anchor="start" x="36.5" y="-288.3" font-family="Helvetica,sans-Serif" font-size="14.00"> [INTEGER]</text>
<polygon fill="none" stroke="black" points="8.5,-253.5 8.5,-278.5 253.5,-278.5 253.5,-253.5 8.5,-253.5"/>
<text text-anchor="start" x="13.5" y="-263.3" font-family="Helvetica,sans-Serif" font-size="14.00">password</text>
<text text-anchor="start" x="71.5" y="-263.3" font-family="Helvetica,sans-Serif" font-size="14.00"> [VARCHAR(80)]</text>
<polygon fill="none" stroke="black" points="8.5,-228.5 8.5,-253.5 253.5,-253.5 253.5,-228.5 8.5,-228.5"/>
<text text-anchor="start" x="13.5" y="-238.3" font-family="Helvetica,sans-Serif" font-size="14.00">email</text>
<text text-anchor="start" x="47.5" y="-238.3" font-family="Helvetica,sans-Serif" font-size="14.00"> [VARCHAR(150)]</text>
<text text-anchor="start" x="156.5" y="-238.3" font-family="Helvetica,sans-Serif" font-size="14.00"> NOT NULL</text>
<polygon fill="none" stroke="black" points="8.5,-203.5 8.5,-228.5 253.5,-228.5 253.5,-203.5 8.5,-203.5"/>
<text text-anchor="start" x="13.5" y="-213.3" font-family="Helvetica,sans-Serif" font-size="14.00">date_joined</text>
<text text-anchor="start" x="83.5" y="-213.3" font-family="Helvetica,sans-Serif" font-size="14.00"> [DATETIME]</text>
<polygon fill="none" stroke="black" points="8.5,-178.5 8.5,-203.5 253.5,-203.5 253.5,-178.5 8.5,-178.5"/>
<text text-anchor="start" x="13.5" y="-188.3" font-family="Helvetica,sans-Serif" font-size="14.00">followers</text>
<text text-anchor="start" x="67.5" y="-188.3" font-family="Helvetica,sans-Serif" font-size="14.00"> [TEXT]</text>
<polygon fill="none" stroke="black" points="8.5,-153.5 8.5,-178.5 253.5,-178.5 253.5,-153.5 8.5,-153.5"/>
<text text-anchor="start" x="13.5" y="-163.3" font-family="Helvetica,sans-Serif" font-size="14.00">openid</text>
<text text-anchor="start" x="54.5" y="-163.3" font-family="Helvetica,sans-Serif" font-size="14.00"> [VARCHAR(80)]</text>
<polygon fill="none" stroke="black" points="8.5,-128.5 8.5,-153.5 253.5,-153.5 253.5,-128.5 8.5,-128.5"/>
<text text-anchor="start" x="13.5" y="-138.3" font-family="Helvetica,sans-Serif" font-size="14.00">receive_email</text>
<text text-anchor="start" x="98.5" y="-138.3" font-family="Helvetica,sans-Serif" font-size="14.00"> [BOOLEAN]</text>
<polygon fill="none" stroke="black" points="8.5,-103.5 8.5,-128.5 253.5,-128.5 253.5,-103.5 8.5,-103.5"/>
<text text-anchor="start" x="13.5" y="-113.3" font-family="Helvetica,sans-Serif" font-size="14.00">karma</text>
<text text-anchor="start" x="52.5" y="-113.3" font-family="Helvetica,sans-Serif" font-size="14.00"> [INTEGER]</text>
<polygon fill="none" stroke="black" points="8.5,-78.5 8.5,-103.5 253.5,-103.5 253.5,-78.5 8.5,-78.5"/>
<text text-anchor="start" x="13.5" y="-88.3" font-family="Helvetica,sans-Serif" font-size="14.00">username</text>
<text text-anchor="start" x="74.5" y="-88.3" font-family="Helvetica,sans-Serif" font-size="14.00"> [VARCHAR(60)]</text>
<text text-anchor="start" x="176.5" y="-88.3" font-family="Helvetica,sans-Serif" font-size="14.00"> NOT NULL</text>
<polygon fill="none" stroke="black" points="8.5,-53.5 8.5,-78.5 253.5,-78.5 253.5,-53.5 8.5,-53.5"/>
<text text-anchor="start" x="13.5" y="-63.3" font-family="Helvetica,sans-Serif" font-size="14.00">following</text>
<text text-anchor="start" x="66.5" y="-63.3" font-family="Helvetica,sans-Serif" font-size="14.00"> [TEXT]</text>
<polygon fill="none" stroke="black" points="8.5,-28.5 8.5,-53.5 253.5,-53.5 253.5,-28.5 8.5,-28.5"/>
<text text-anchor="start" x="13.5" y="-38.3" font-family="Helvetica,sans-Serif" font-size="14.00">email_alerts</text>
<text text-anchor="start" x="87.5" y="-38.3" font-family="Helvetica,sans-Serif" font-size="14.00"> [BOOLEAN]</text>
<polygon fill="none" stroke="black" points="8.5,-3.5 8.5,-28.5 253.5,-28.5 253.5,-3.5 8.5,-3.5"/>
<text text-anchor="start" x="13.5" y="-13.3" font-family="Helvetica,sans-Serif" font-size="14.00">activation_key</text>
<text text-anchor="start" x="99.5" y="-13.3" font-family="Helvetica,sans-Serif" font-size="14.00"> [VARCHAR(80)]</text>
</g>
<!-- posts -->
<g id="node3" class="node">
<title>posts</title>
<polygon fill="none" stroke="black" points="342,-468.5 342,-496.5 554,-496.5 554,-468.5 342,-468.5"/>
<text text-anchor="start" x="426.5" y="-479.7" font-family="Helvetica,sans-Serif" font-weight="bold" font-size="16.00">posts</text>
<polygon fill="none" stroke="black" points="342,-443.5 342,-468.5 554,-468.5 554,-443.5 342,-443.5"/>
<text text-anchor="start" x="347" y="-453.3" font-family="Helvetica,sans-Serif" font-size="14.00">description</text>
<text text-anchor="start" x="413" y="-453.3" font-family="Helvetica,sans-Serif" font-size="14.00"> [TEXT]</text>
<polygon fill="none" stroke="black" points="342,-418.5 342,-443.5 554,-443.5 554,-418.5 342,-418.5"/>
<text text-anchor="start" x="347" y="-428.3" font-family="Helvetica,sans-Serif" font-size="14.00">num_comments</text>
<text text-anchor="start" x="446" y="-428.3" font-family="Helvetica,sans-Serif" font-size="14.00"> [INTEGER]</text>
<polygon fill="none" stroke="black" points="342,-393.5 342,-418.5 554,-418.5 554,-393.5 342,-393.5"/>
<text text-anchor="start" x="347" y="-403.3" font-family="Helvetica,sans-Serif" font-size="14.00">tags</text>
<text text-anchor="start" x="373" y="-403.3" font-family="Helvetica,sans-Serif" font-size="14.00"> [TEXT]</text>
<polygon fill="none" stroke="black" points="342,-368.5 342,-393.5 554,-393.5 554,-368.5 342,-368.5"/>
<text text-anchor="start" x="347" y="-378.3" font-family="Helvetica,sans-Serif" font-size="14.00">title</text>
<text text-anchor="start" x="369" y="-378.3" font-family="Helvetica,sans-Serif" font-size="14.00"> [VARCHAR(200)]</text>
<polygon fill="none" stroke="black" points="342,-343.5 342,-368.5 554,-368.5 554,-343.5 342,-343.5"/>
<text text-anchor="start" x="347" y="-353.3" font-family="Helvetica,sans-Serif" text-decoration="underline" font-size="14.00">id</text>
<text text-anchor="start" x="358" y="-353.3" font-family="Helvetica,sans-Serif" font-size="14.00"> [INTEGER]</text>
<text text-anchor="start" x="431" y="-353.3" font-family="Helvetica,sans-Serif" font-size="14.00"> NOT NULL</text>
<polygon fill="none" stroke="black" points="342,-318.5 342,-343.5 554,-343.5 554,-318.5 342,-318.5"/>
<text text-anchor="start" x="347" y="-328.3" font-family="Helvetica,sans-Serif" font-size="14.00">votes</text>
<text text-anchor="start" x="380" y="-328.3" font-family="Helvetica,sans-Serif" font-size="14.00"> [TEXT]</text>
<polygon fill="none" stroke="black" points="342,-293.5 342,-318.5 554,-318.5 554,-293.5 342,-293.5"/>
<text text-anchor="start" x="347" y="-303.3" font-family="Helvetica,sans-Serif" font-size="14.00">link</text>
<text text-anchor="start" x="368" y="-303.3" font-family="Helvetica,sans-Serif" font-size="14.00"> [VARCHAR(250)]</text>
<polygon fill="none" stroke="black" points="342,-268.5 342,-293.5 554,-293.5 554,-268.5 342,-268.5"/>
<text text-anchor="start" x="347" y="-278.3" font-family="Helvetica,sans-Serif" font-size="14.00">author_id</text>
<text text-anchor="start" x="404" y="-278.3" font-family="Helvetica,sans-Serif" font-size="14.00"> [INTEGER]</text>
<text text-anchor="start" x="477" y="-278.3" font-family="Helvetica,sans-Serif" font-size="14.00"> NOT NULL</text>
<polygon fill="none" stroke="black" points="342,-243.5 342,-268.5 554,-268.5 554,-243.5 342,-243.5"/>
<text text-anchor="start" x="347" y="-253.3" font-family="Helvetica,sans-Serif" font-size="14.00">date_created</text>
<text text-anchor="start" x="426" y="-253.3" font-family="Helvetica,sans-Serif" font-size="14.00"> [DATETIME]</text>
<polygon fill="none" stroke="black" points="342,-218.5 342,-243.5 554,-243.5 554,-218.5 342,-218.5"/>
<text text-anchor="start" x="347" y="-228.3" font-family="Helvetica,sans-Serif" font-size="14.00">access</text>
<text text-anchor="start" x="390" y="-228.3" font-family="Helvetica,sans-Serif" font-size="14.00"> [INTEGER]</text>
<polygon fill="none" stroke="black" points="342,-193.5 342,-218.5 554,-218.5 554,-193.5 342,-193.5"/>
<text text-anchor="start" x="347" y="-203.3" font-family="Helvetica,sans-Serif" font-size="14.00">score</text>
<text text-anchor="start" x="381" y="-203.3" font-family="Helvetica,sans-Serif" font-size="14.00"> [INTEGER]</text>
</g>
<!-- users&#45;&#45;posts -->
<g id="edge1" class="edge">
<title>users&#45;&#45;posts</title>
<path fill="none" stroke="#7f7f7f" stroke-dasharray="5,2" d="M261.19,-248.33C285.33,-260.95 310.37,-274.04 333.95,-286.38"/>
<text text-anchor="start" x="308.95" y="-275.18" font-family="Times,serif" font-size="14.00">0..N</text>
<text text-anchor="start" x="261.19" y="-237.13" font-family="Times,serif" font-size="14.00">{0,1}</text>
</g>
<!-- comments -->
<g id="node4" class="node">
<title>comments</title>
<polygon fill="none" stroke="black" points="643,-339.5 643,-367.5 855,-367.5 855,-339.5 643,-339.5"/>
<text text-anchor="start" x="708.5" y="-350.7" font-family="Helvetica,sans-Serif" font-weight="bold" font-size="16.00">comments</text>
<polygon fill="none" stroke="black" points="643,-314.5 643,-339.5 855,-339.5 855,-314.5 643,-314.5"/>
<text text-anchor="start" x="648" y="-324.3" font-family="Helvetica,sans-Serif" font-size="14.00">author_id</text>
<text text-anchor="start" x="705" y="-324.3" font-family="Helvetica,sans-Serif" font-size="14.00"> [INTEGER]</text>
<text text-anchor="start" x="778" y="-324.3" font-family="Helvetica,sans-Serif" font-size="14.00"> NOT NULL</text>
<polygon fill="none" stroke="black" points="643,-289.5 643,-314.5 855,-314.5 855,-289.5 643,-289.5"/>
<text text-anchor="start" x="648" y="-299.3" font-family="Helvetica,sans-Serif" font-size="14.00">comment</text>
<text text-anchor="start" x="706" y="-299.3" font-family="Helvetica,sans-Serif" font-size="14.00"> [TEXT]</text>
<polygon fill="none" stroke="black" points="643,-264.5 643,-289.5 855,-289.5 855,-264.5 643,-264.5"/>
<text text-anchor="start" x="648" y="-274.3" font-family="Helvetica,sans-Serif" text-decoration="underline" font-size="14.00">id</text>
<text text-anchor="start" x="659" y="-274.3" font-family="Helvetica,sans-Serif" font-size="14.00"> [INTEGER]</text>
<text text-anchor="start" x="732" y="-274.3" font-family="Helvetica,sans-Serif" font-size="14.00"> NOT NULL</text>
<polygon fill="none" stroke="black" points="643,-239.5 643,-264.5 855,-264.5 855,-239.5 643,-239.5"/>
<text text-anchor="start" x="648" y="-249.3" font-family="Helvetica,sans-Serif" font-size="14.00">date_created</text>
<text text-anchor="start" x="727" y="-249.3" font-family="Helvetica,sans-Serif" font-size="14.00"> [DATETIME]</text>
<polygon fill="none" stroke="black" points="643,-214.5 643,-239.5 855,-239.5 855,-214.5 643,-214.5"/>
<text text-anchor="start" x="648" y="-224.3" font-family="Helvetica,sans-Serif" font-size="14.00">votes</text>
<text text-anchor="start" x="681" y="-224.3" font-family="Helvetica,sans-Serif" font-size="14.00"> [TEXT]</text>
<polygon fill="none" stroke="black" points="643,-189.5 643,-214.5 855,-214.5 855,-189.5 643,-189.5"/>
<text text-anchor="start" x="648" y="-199.3" font-family="Helvetica,sans-Serif" font-size="14.00">parent_id</text>
<text text-anchor="start" x="705" y="-199.3" font-family="Helvetica,sans-Serif" font-size="14.00"> [INTEGER]</text>
<polygon fill="none" stroke="black" points="643,-164.5 643,-189.5 855,-189.5 855,-164.5 643,-164.5"/>
<text text-anchor="start" x="648" y="-174.3" font-family="Helvetica,sans-Serif" font-size="14.00">post_id</text>
<text text-anchor="start" x="692" y="-174.3" font-family="Helvetica,sans-Serif" font-size="14.00"> [INTEGER]</text>
<text text-anchor="start" x="765" y="-174.3" font-family="Helvetica,sans-Serif" font-size="14.00"> NOT NULL</text>
<polygon fill="none" stroke="black" points="643,-139.5 643,-164.5 855,-164.5 855,-139.5 643,-139.5"/>
<text text-anchor="start" x="648" y="-149.3" font-family="Helvetica,sans-Serif" font-size="14.00">score</text>
<text text-anchor="start" x="682" y="-149.3" font-family="Helvetica,sans-Serif" font-size="14.00"> [INTEGER]</text>
</g>
<!-- users&#45;&#45;comments -->
<g id="edge2" class="edge">
<title>users&#45;&#45;comments</title>
<path fill="none" stroke="#7f7f7f" stroke-dasharray="5,2" d="M261.24,-168.01C347.29,-162.78 462.31,-161.64 562,-180.5 586.2,-185.08 611.28,-192.73 634.9,-201.4"/>
<text text-anchor="start" x="609.9" y="-190.2" font-family="Times,serif" font-size="14.00">0..N</text>
<text text-anchor="start" x="261.24" y="-156.81" font-family="Times,serif" font-size="14.00">{0,1}</text>
</g>
<!-- posts&#45;&#45;post_tags -->
<g id="edge3" class="edge">
<title>posts&#45;&#45;post_tags</title>
<path fill="none" stroke="#7f7f7f" stroke-dasharray="5,2" d="M562.04,-408.64C598.26,-428.86 637.51,-450.79 670.58,-469.26"/>
<text text-anchor="start" x="645.58" y="-458.06" font-family="Times,serif" font-size="14.00">0..N</text>
<text text-anchor="start" x="562.04" y="-397.44" font-family="Times,serif" font-size="14.00">{0,1}</text>
</g>
<!-- posts&#45;&#45;comments -->
<g id="edge4" class="edge">
<title>posts&#45;&#45;comments</title>
<path fill="none" stroke="#7f7f7f" stroke-dasharray="5,2" d="M562.04,-310.72C585.85,-303.39 610.98,-295.66 634.8,-288.33"/>
<text text-anchor="start" x="609.8" y="-277.13" font-family="Times,serif" font-size="14.00">0..N</text>
<text text-anchor="start" x="562.04" y="-299.52" font-family="Times,serif" font-size="14.00">{0,1}</text>
</g>
<!-- comments&#45;&#45;comments -->
<g id="edge5" class="edge">
<title>comments&#45;&#45;comments</title>
<path fill="none" stroke="#7f7f7f" stroke-dasharray="5,2" d="M726.65,-371.94C731.3,-382.72 738.75,-389.5 749,-389.5 759.25,-389.5 766.7,-382.72 771.35,-371.94"/>
<text text-anchor="start" x="746.35" y="-375.74" font-family="Times,serif" font-size="14.00">0..N</text>
<text text-anchor="start" x="695.65" y="-375.74" font-family="Times,serif" font-size="14.00">{0,1}</text>
</g>
<!-- tags -->
<g id="node5" class="node">
<title>tags</title>
<polygon fill="none" stroke="black" points="365,-597.5 365,-625.5 531,-625.5 531,-597.5 365,-597.5"/>
<text text-anchor="start" x="431" y="-608.7" font-family="Helvetica,sans-Serif" font-weight="bold" font-size="16.00">tags</text>
<polygon fill="none" stroke="black" points="365,-572.5 365,-597.5 531,-597.5 531,-572.5 365,-572.5"/>
<text text-anchor="start" x="370" y="-582.3" font-family="Helvetica,sans-Serif" text-decoration="underline" font-size="14.00">id</text>
<text text-anchor="start" x="381" y="-582.3" font-family="Helvetica,sans-Serif" font-size="14.00"> [INTEGER]</text>
<text text-anchor="start" x="454" y="-582.3" font-family="Helvetica,sans-Serif" font-size="14.00"> NOT NULL</text>
<polygon fill="none" stroke="black" points="365,-547.5 365,-572.5 531,-572.5 531,-547.5 365,-547.5"/>
<text text-anchor="start" x="370" y="-557.3" font-family="Helvetica,sans-Serif" font-size="14.00">name</text>
<text text-anchor="start" x="405" y="-557.3" font-family="Helvetica,sans-Serif" font-size="14.00"> [VARCHAR(80)]</text>
<polygon fill="none" stroke="black" points="365,-522.5 365,-547.5 531,-547.5 531,-522.5 365,-522.5"/>
<text text-anchor="start" x="370" y="-532.3" font-family="Helvetica,sans-Serif" font-size="14.00">slug</text>
<text text-anchor="start" x="395" y="-532.3" font-family="Helvetica,sans-Serif" font-size="14.00"> [VARCHAR(80)]</text>
</g>
<!-- tags&#45;&#45;post_tags -->
<g id="edge6" class="edge">
<title>tags&#45;&#45;post_tags</title>
<path fill="none" stroke="#7f7f7f" stroke-dasharray="5,2" d="M539.12,-555.81C571.36,-549.13 608,-541.53 641.49,-534.59"/>
<text text-anchor="start" x="616.49" y="-523.39" font-family="Times,serif" font-size="14.00">0..N</text>
<text text-anchor="start" x="539.12" y="-544.61" font-family="Times,serif" font-size="14.00">{0,1}</text>
</g>
</g>
</svg>
