<?xml version="1.0" encoding="UTF-8" standalone="no"?>
<!DOCTYPE svg PUBLIC "-//W3C//DTD SVG 1.1//EN"
 "http://www.w3.org/Graphics/SVG/1.1/DTD/svg11.dtd">
<!-- Generated by graphviz version 2.43.0 (0)
 -->
<!-- Title: %3 Pages: 1 -->
<svg width="883pt" height="774pt"
 viewBox="0.00 0.00 883.00 774.00" xmlns="http://www.w3.org/2000/svg" xmlns:xlink="http://www.w3.org/1999/xlink">
<g id="graph0" class="graph" transform="scale(1 1) rotate(0) translate(4 770)">
<title>%3</title>
<polygon fill="white" stroke="transparent" points="-4,4 -4,-770 879,-770 879,4 -4,4"/>
<!-- post_tags -->
<g id="node1" class="node">
<title>post_tags</title>
<polygon fill="none" stroke="black" points="658,-554.5 658,-582.5 861,-582.5 861,-554.5 658,-554.5"/>
<text text-anchor="start" x="721.5" y="-565.7" font-family="Helvetica,sans-Serif" font-weight="bold" font-size="16.00">post_tags</text>
<polygon fill="none" stroke="black" points="658,-529.5 658,-554.5 861,-554.5 861,-529.5 658,-529.5"/>
<text text-anchor="start" x="663" y="-539.3" font-family="Helvetica,sans-Serif" text-decoration="underline" font-size="14.00">post_id</text>
<text text-anchor="start" x="707" y="-539.3" font-family="Helvetica,sans-Serif" font-size="14.00"> </text>
<text text-anchor="start" x="711" y="-539.3" font-family="Helvetica,sans-Serif" font-size="14.00"> [INTEGER]</text>
<text text-anchor="start" x="784" y="-539.3" font-family="Helvetica,sans-Serif" font-size="14.00"> NOT NULL</text>
<polygon fill="none" stroke="black" points="658,-504.5 658,-529.5 861,-529.5 861,-504.5 658,-504.5"/>
<text text-anchor="start" x="663" y="-514.3" font-family="Helvetica,sans-Serif" text-decoration="underline" font-size="14.00">tag_id</text>
<text text-anchor="start" x="700" y="-514.3" font-family="Helvetica,sans-Serif" font-size="14.00"> </text>
<text text-anchor="start" x="704" y="-514.3" font-family="Helvetica,sans-Serif" font-size="14.00"> [INTEGER]</text>
<text text-anchor="start" x="777" y="-514.3" font-family="Helvetica,sans-Serif" font-size="14.00"> NOT NULL</text>
</g>
<!-- users -->
<g id="node2" class="node">
<title>users</title>
<polygon fill="none" stroke="black" points="8.5,-328.5 8.5,-356.5 257.5,-356.5 257.5,-328.5 8.5,-328.5"/>
<text text-anchor="start" x="111.5" y="-339.7" font-family="Helvetica,sans-Serif" font-weight="bold" font-size="16.00">users</text>
<polygon fill="none" stroke="black" points="8.5,-303.5 8.5,-328.5 257.5,-328.5 257.5,-303.5 8.5,-303.5"/>
<text text-anchor="start" x="13.5" y="-313.3" font-family="Helvetica,sans-Serif" text-decoration="underline" font-size="14.00">id</text>
<text text-anchor="start" x="24.5" y="-313.3" font-family="Helvetica,sans-Serif" font-size="14.00"> </text>
<text text-anchor="start" x="28.5" y="-313.3" font-family="Helvetica,sans-Serif" font-size="14.00"> [INTEGER]</text>
<text text-anchor="start" x="101.5" y="-313.3" font-family="Helvetica,sans-Serif" font-size="14.00"> NOT NULL</text>
<polygon fill="none" stroke="black" points="8.5,-278.5 8.5,-303.5 257.5,-303.5 257.5,-278.5 8.5,-278.5"/>
<text text-anchor="start" x="13.5" y="-288.3" font-family="Helvetica,sans-Serif" font-size="14.00">activation_key</text>
<text text-anchor="start" x="99.5" y="-288.3" font-family="Helvetica,sans-Serif" font-size="14.00"> </text>
<text text-anchor="start" x="103.5" y="-288.3" font-family="Helvetica,sans-Serif" font-size="14.00"> [VARCHAR(80)]</text>
<polygon fill="none" stroke="black" points="8.5,-253.5 8.5,-278.5 257.5,-278.5 257.5,-253.5 8.5,-253.5"/>
<text text-anchor="start" x="13.5" y="-263.3" font-family="Helvetica,sans-Serif" font-size="14.00">date_joined</text>
<text text-anchor="start" x="83.5" y="-263.3" font-family="Helvetica,sans-Serif" font-size="14.00"> </text>
<text text-anchor="start" x="87.5" y="-263.3" font-family="Helvetica,sans-Serif" font-size="14.00"> [DATETIME]</text>
<polygon fill="none" stroke="black" points="8.5,-228.5 8.5,-253.5 257.5,-253.5 257.5,-228.5 8.5,-228.5"/>
<text text-anchor="start" x="13.5" y="-238.3" font-family="Helvetica,sans-Serif" font-size="14.00">email</text>
<text text-anchor="start" x="47.5" y="-238.3" font-family="Helvetica,sans-Serif" font-size="14.00"> </text>
<text text-anchor="start" x="51.5" y="-238.3" font-family="Helvetica,sans-Serif" font-size="14.00"> [VARCHAR(150)]</text>
<text text-anchor="start" x="160.5" y="-238.3" font-family="Helvetica,sans-Serif" font-size="14.00"> NOT NULL</text>
<polygon fill="none" stroke="black" points="8.5,-203.5 8.5,-228.5 257.5,-228.5 257.5,-203.5 8.5,-203.5"/>
<text text-anchor="start" x="13.5" y="-213.3" font-family="Helvetica,sans-Serif" font-size="14.00">email_alerts</text>
<text text-anchor="start" x="87.5" y="-213.3" font-family="Helvetica,sans-Serif" font-size="14.00"> </text>
<text text-anchor="start" x="91.5" y="-213.3" font-family="Helvetica,sans-Serif" font-size="14.00"> [BOOLEAN]</text>
<polygon fill="none" stroke="black" points="8.5,-178.5 8.5,-203.5 257.5,-203.5 257.5,-178.5 8.5,-178.5"/>
<text text-anchor="start" x="13.5" y="-188.3" font-family="Helvetica,sans-Serif" font-size="14.00">followers</text>
<text text-anchor="start" x="67.5" y="-188.3" font-family="Helvetica,sans-Serif" font-size="14.00"> </text>
<text text-anchor="start" x="71.5" y="-188.3" font-family="Helvetica,sans-Serif" font-size="14.00"> [TEXT]</text>
<polygon fill="none" stroke="black" points="8.5,-153.5 8.5,-178.5 257.5,-178.5 257.5,-153.5 8.5,-153.5"/>
<text text-anchor="start" x="13.5" y="-163.3" font-family="Helvetica,sans-Serif" font-size="14.00">following</text>
<text text-anchor="start" x="66.5" y="-163.3" font-family="Helvetica,sans-Serif" font-size="14.00"> </text>
<text text-anchor="start" x="70.5" y="-163.3" font-family="Helvetica,sans-Serif" font-size="14.00"> [TEXT]</text>
<polygon fill="none" stroke="black" points="8.5,-128.5 8.5,-153.5 257.5,-153.5 257.5,-128.5 8.5,-128.5"/>
<text text-anchor="start" x="13.5" y="-138.3" font-family="Helvetica,sans-Serif" font-size="14.00">karma</text>
<text text-anchor="start" x="52.5" y="-138.3" font-family="Helvetica,sans-Serif" font-size="14.00"> </text>
<text text-anchor="start" x="56.5" y="-138.3" font-family="Helvetica,sans-Serif" font-size="14.00"> [INTEGER]</text>
<polygon fill="none" stroke="black" points="8.5,-103.5 8.5,-128.5 257.5,-128.5 257.5,-103.5 8.5,-103.5"/>
<text text-anchor="start" x="13.5" y="-113.3" font-family="Helvetica,sans-Serif" font-size="14.00">openid</text>
<text text-anchor="start" x="54.5" y="-113.3" font-family="Helvetica,sans-Serif" font-size="14.00"> </text>
<text text-anchor="start" x="58.5" y="-113.3" font-family="Helvetica,sans-Serif" font-size="14.00"> [VARCHAR(80)]</text>
<polygon fill="none" stroke="black" points="8.5,-78.5 8.5,-103.5 257.5,-103.5 257.5,-78.5 8.5,-78.5"/>
<text text-anchor="start" x="13.5" y="-88.3" font-family="Helvetica,sans-Serif" font-size="14.00">password</text>
<text text-anchor="start" x="71.5" y="-88.3" font-family="Helvetica,sans-Serif" font-size="14.00"> </text>
<text text-anchor="start" x="75.5" y="-88.3" font-family="Helvetica,sans-Serif" font-size="14.00"> [VARCHAR(80)]</text>
<polygon fill="none" stroke="black" points="8.5,-53.5 8.5,-78.5 257.5,-78.5 257.5,-53.5 8.5,-53.5"/>
<text text-anchor="start" x="13.5" y="-63.3" font-family="Helvetica,sans-Serif" font-size="14.00">receive_email</text>
<text text-anchor="start" x="98.5" y="-63.3" font-family="Helvetica,sans-Serif" font-size="14.00"> </text>
<text text-anchor="start" x="102.5" y="-63.3" font-family="Helvetica,sans-Serif" font-size="14.00"> [BOOLEAN]</text>
<polygon fill="none" stroke="black" points="8.5,-28.5 8.5,-53.5 257.5,-53.5 257.5,-28.5 8.5,-28.5"/>
<text text-anchor="start" x="13.5" y="-38.3" font-family="Helvetica,sans-Serif" font-size="14.00">role</text>
<text text-anchor="start" x="36.5" y="-38.3" font-family="Helvetica,sans-Serif" font-size="14.00"> </text>
<text text-anchor="start" x="40.5" y="-38.3" font-family="Helvetica,sans-Serif" font-size="14.00"> [INTEGER]</text>
<polygon fill="none" stroke="black" points="8.5,-3.5 8.5,-28.5 257.5,-28.5 257.5,-3.5 8.5,-3.5"/>
<text text-anchor="start" x="13.5" y="-13.3" font-family="Helvetica,sans-Serif" font-size="14.00">username</text>
<text text-anchor="start" x="74.5" y="-13.3" font-family="Helvetica,sans-Serif" font-size="14.00"> </text>
<text text-anchor="start" x="78.5" y="-13.3" font-family="Helvetica,sans-Serif" font-size="14.00"> [VARCHAR(60)]</text>
<text text-anchor="start" x="180.5" y="-13.3" font-family="Helvetica,sans-Serif" font-size="14.00"> NOT NULL</text>
</g>
<!-- posts -->
<g id="node3" class="node">
<title>posts</title>
<polygon fill="none" stroke="black" points="346,-733.5 346,-761.5 562,-761.5 562,-733.5 346,-733.5"/>
<text text-anchor="start" x="432.5" y="-744.7" font-family="Helvetica,sans-Serif" font-weight="bold" font-size="16.00">posts</text>
<polygon fill="none" stroke="black" points="346,-708.5 346,-733.5 562,-733.5 562,-708.5 346,-708.5"/>
<text text-anchor="start" x="351" y="-718.3" font-family="Helvetica,sans-Serif" text-decoration="underline" font-size="14.00">id</text>
<text text-anchor="start" x="362" y="-718.3" font-family="Helvetica,sans-Serif" font-size="14.00"> </text>
<text text-anchor="start" x="366" y="-718.3" font-family="Helvetica,sans-Serif" font-size="14.00"> [INTEGER]</text>
<text text-anchor="start" x="439" y="-718.3" font-family="Helvetica,sans-Serif" font-size="14.00"> NOT NULL</text>
<polygon fill="none" stroke="black" points="346,-683.5 346,-708.5 562,-708.5 562,-683.5 346,-683.5"/>
<text text-anchor="start" x="351" y="-693.3" font-family="Helvetica,sans-Serif" font-size="14.00">access</text>
<text text-anchor="start" x="394" y="-693.3" font-family="Helvetica,sans-Serif" font-size="14.00"> </text>
<text text-anchor="start" x="398" y="-693.3" font-family="Helvetica,sans-Serif" font-size="14.00"> [INTEGER]</text>
<polygon fill="none" stroke="black" points="346,-658.5 346,-683.5 562,-683.5 562,-658.5 346,-658.5"/>
<text text-anchor="start" x="351" y="-668.3" font-family="Helvetica,sans-Serif" font-size="14.00">author_id</text>
<text text-anchor="start" x="408" y="-668.3" font-family="Helvetica,sans-Serif" font-size="14.00"> </text>
<text text-anchor="start" x="412" y="-668.3" font-family="Helvetica,sans-Serif" font-size="14.00"> [INTEGER]</text>
<text text-anchor="start" x="485" y="-668.3" font-family="Helvetica,sans-Serif" font-size="14.00"> NOT NULL</text>
<polygon fill="none" stroke="black" points="346,-633.5 346,-658.5 562,-658.5 562,-633.5 346,-633.5"/>
<text text-anchor="start" x="351" y="-643.3" font-family="Helvetica,sans-Serif" font-size="14.00">date_created</text>
<text text-anchor="start" x="430" y="-643.3" font-family="Helvetica,sans-Serif" font-size="14.00"> </text>
<text text-anchor="start" x="434" y="-643.3" font-family="Helvetica,sans-Serif" font-size="14.00"> [DATETIME]</text>
<polygon fill="none" stroke="black" points="346,-608.5 346,-633.5 562,-633.5 562,-608.5 346,-608.5"/>
<text text-anchor="start" x="351" y="-618.3" font-family="Helvetica,sans-Serif" font-size="14.00">description</text>
<text text-anchor="start" x="417" y="-618.3" font-family="Helvetica,sans-Serif" font-size="14.00"> </text>
<text text-anchor="start" x="421" y="-618.3" font-family="Helvetica,sans-Serif" font-size="14.00"> [TEXT]</text>
<polygon fill="none" stroke="black" points="346,-583.5 346,-608.5 562,-608.5 562,-583.5 346,-583.5"/>
<text text-anchor="start" x="351" y="-593.3" font-family="Helvetica,sans-Serif" font-size="14.00">link</text>
<text text-anchor="start" x="372" y="-593.3" font-family="Helvetica,sans-Serif" font-size="14.00"> </text>
<text text-anchor="start" x="376" y="-593.3" font-family="Helvetica,sans-Serif" font-size="14.00"> [VARCHAR(250)]</text>
<polygon fill="none" stroke="black" points="346,-558.5 346,-583.5 562,-583.5 562,-558.5 346,-558.5"/>
<text text-anchor="start" x="351" y="-568.3" font-family="Helvetica,sans-Serif" font-size="14.00">num_comments</text>
<text text-anchor="start" x="450" y="-568.3" font-family="Helvetica,sans-Serif" font-size="14.00"> </text>
<text text-anchor="start" x="454" y="-568.3" font-family="Helvetica,sans-Serif" font-size="14.00"> [INTEGER]</text>
<polygon fill="none" stroke="black" points="346,-533.5 346,-558.5 562,-558.5 562,-533.5 346,-533.5"/>
<text text-anchor="start" x="351" y="-543.3" font-family="Helvetica,sans-Serif" font-size="14.00">score</text>
<text text-anchor="start" x="385" y="-543.3" font-family="Helvetica,sans-Serif" font-size="14.00"> </text>
<text text-anchor="start" x="389" y="-543.3" font-family="Helvetica,sans-Serif" font-size="14.00"> [INTEGER]</text>
<polygon fill="none" stroke="black" points="346,-508.5 346,-533.5 562,-533.5 562,-508.5 346,-508.5"/>
<text text-anchor="start" x="351" y="-518.3" font-family="Helvetica,sans-Serif" font-size="14.00">tags</text>
<text text-anchor="start" x="377" y="-518.3" font-family="Helvetica,sans-Serif" font-size="14.00"> </text>
<text text-anchor="start" x="381" y="-518.3" font-family="Helvetica,sans-Serif" font-size="14.00"> [TEXT]</text>
<polygon fill="none" stroke="black" points="346,-483.5 346,-508.5 562,-508.5 562,-483.5 346,-483.5"/>
<text text-anchor="start" x="351" y="-493.3" font-family="Helvetica,sans-Serif" font-size="14.00">title</text>
<text text-anchor="start" x="373" y="-493.3" font-family="Helvetica,sans-Serif" font-size="14.00"> </text>
<text text-anchor="start" x="377" y="-493.3" font-family="Helvetica,sans-Serif" font-size="14.00"> [VARCHAR(200)]</text>
<polygon fill="none" stroke="black" points="346,-458.5 346,-483.5 562,-483.5 562,-458.5 346,-458.5"/>
<text text-anchor="start" x="351" y="-468.3" font-family="Helvetica,sans-Serif" font-size="14.00">votes</text>
<text text-anchor="start" x="384" y="-468.3" font-family="Helvetica,sans-Serif" font-size="14.00"> </text>
<text text-anchor="start" x="388" y="-468.3" font-family="Helvetica,sans-Serif" font-size="14.00"> [TEXT]</text>
</g>
<!-- users&#45;&#45;posts -->
<g id="edge1" class="edge">
<title>users:id&#45;&#45;posts:author_id</title>
<path fill="none" stroke="#7f7f7f" stroke-dasharray="5,2" d="M258.5,-316.5C420.89,-316.5 182.61,-671.5 345,-671.5"/>
<text text-anchor="start" x="320" y="-660.3" font-family="Times,serif" font-size="14.00">0..N</text>
<text text-anchor="start" x="258.5" y="-305.3" font-family="Times,serif" font-size="14.00">1</text>
</g>
<!-- comments -->
<g id="node4" class="node">
<title>comments</title>
<polygon fill="none" stroke="black" points="651,-392.5 651,-420.5 867,-420.5 867,-392.5 651,-392.5"/>
<text text-anchor="start" x="718.5" y="-403.7" font-family="Helvetica,sans-Serif" font-weight="bold" font-size="16.00">comments</text>
<polygon fill="none" stroke="black" points="651,-367.5 651,-392.5 867,-392.5 867,-367.5 651,-367.5"/>
<text text-anchor="start" x="656" y="-377.3" font-family="Helvetica,sans-Serif" text-decoration="underline" font-size="14.00">id</text>
<text text-anchor="start" x="667" y="-377.3" font-family="Helvetica,sans-Serif" font-size="14.00"> </text>
<text text-anchor="start" x="671" y="-377.3" font-family="Helvetica,sans-Serif" font-size="14.00"> [INTEGER]</text>
<text text-anchor="start" x="744" y="-377.3" font-family="Helvetica,sans-Serif" font-size="14.00"> NOT NULL</text>
<polygon fill="none" stroke="black" points="651,-342.5 651,-367.5 867,-367.5 867,-342.5 651,-342.5"/>
<text text-anchor="start" x="656" y="-352.3" font-family="Helvetica,sans-Serif" font-size="14.00">author_id</text>
<text text-anchor="start" x="713" y="-352.3" font-family="Helvetica,sans-Serif" font-size="14.00"> </text>
<text text-anchor="start" x="717" y="-352.3" font-family="Helvetica,sans-Serif" font-size="14.00"> [INTEGER]</text>
<text text-anchor="start" x="790" y="-352.3" font-family="Helvetica,sans-Serif" font-size="14.00"> NOT NULL</text>
<polygon fill="none" stroke="black" points="651,-317.5 651,-342.5 867,-342.5 867,-317.5 651,-317.5"/>
<text text-anchor="start" x="656" y="-327.3" font-family="Helvetica,sans-Serif" font-size="14.00">comment</text>
<text text-anchor="start" x="714" y="-327.3" font-family="Helvetica,sans-Serif" font-size="14.00"> </text>
<text text-anchor="start" x="718" y="-327.3" font-family="Helvetica,sans-Serif" font-size="14.00"> [TEXT]</text>
<polygon fill="none" stroke="black" points="651,-292.5 651,-317.5 867,-317.5 867,-292.5 651,-292.5"/>
<text text-anchor="start" x="656" y="-302.3" font-family="Helvetica,sans-Serif" font-size="14.00">date_created</text>
<text text-anchor="start" x="735" y="-302.3" font-family="Helvetica,sans-Serif" font-size="14.00"> </text>
<text text-anchor="start" x="739" y="-302.3" font-family="Helvetica,sans-Serif" font-size="14.00"> [DATETIME]</text>
<polygon fill="none" stroke="black" points="651,-267.5 651,-292.5 867,-292.5 867,-267.5 651,-267.5"/>
<text text-anchor="start" x="656" y="-277.3" font-family="Helvetica,sans-Serif" font-size="14.00">parent_id</text>
<text text-anchor="start" x="713" y="-277.3" font-family="Helvetica,sans-Serif" font-size="14.00"> </text>
<text text-anchor="start" x="717" y="-277.3" font-family="Helvetica,sans-Serif" font-size="14.00"> [INTEGER]</text>
<polygon fill="none" stroke="black" points="651,-242.5 651,-267.5 867,-267.5 867,-242.5 651,-242.5"/>
<text text-anchor="start" x="656" y="-252.3" font-family="Helvetica,sans-Serif" font-size="14.00">post_id</text>
<text text-anchor="start" x="700" y="-252.3" font-family="Helvetica,sans-Serif" font-size="14.00"> </text>
<text text-anchor="start" x="704" y="-252.3" font-family="Helvetica,sans-Serif" font-size="14.00"> [INTEGER]</text>
<text text-anchor="start" x="777" y="-252.3" font-family="Helvetica,sans-Serif" font-size="14.00"> NOT NULL</text>
<polygon fill="none" stroke="black" points="651,-217.5 651,-242.5 867,-242.5 867,-217.5 651,-217.5"/>
<text text-anchor="start" x="656" y="-227.3" font-family="Helvetica,sans-Serif" font-size="14.00">score</text>
<text text-anchor="start" x="690" y="-227.3" font-family="Helvetica,sans-Serif" font-size="14.00"> </text>
<text text-anchor="start" x="694" y="-227.3" font-family="Helvetica,sans-Serif" font-size="14.00"> [INTEGER]</text>
<polygon fill="none" stroke="black" points="651,-192.5 651,-217.5 867,-217.5 867,-192.5 651,-192.5"/>
<text text-anchor="start" x="656" y="-202.3" font-family="Helvetica,sans-Serif" font-size="14.00">votes</text>
<text text-anchor="start" x="689" y="-202.3" font-family="Helvetica,sans-Serif" font-size="14.00"> </text>
<text text-anchor="start" x="693" y="-202.3" font-family="Helvetica,sans-Serif" font-size="14.00"> [TEXT]</text>
</g>
<!-- users&#45;&#45;comments -->
<g id="edge2" class="edge">
<title>users:id&#45;&#45;comments:author_id</title>
<path fill="none" stroke="#7f7f7f" stroke-dasharray="5,2" d="M258.5,-316.5C396.94,-316.5 435.1,-285.37 570,-316.5 608.54,-325.39 610.44,-355.5 650,-355.5"/>
<text text-anchor="start" x="625" y="-344.3" font-family="Times,serif" font-size="14.00">0..N</text>
<text text-anchor="start" x="258.5" y="-320.3" font-family="Times,serif" font-size="14.00">1</text>
</g>
<!-- posts&#45;&#45;post_tags -->
<g id="edge3" class="edge">
<title>posts:id&#45;&#45;post_tags:post_id</title>
<path fill="none" stroke="#7f7f7f" stroke-dasharray="5,2" d="M563,-721.5C653.25,-721.5 566.75,-541.5 657,-541.5"/>
<text text-anchor="start" x="632" y="-530.3" font-family="Times,serif" font-size="14.00">0..N</text>
<text text-anchor="start" x="556" y="-710.3" font-family="Times,serif" font-size="14.00">1</text>
</g>
<!-- posts&#45;&#45;comments -->
<g id="edge4" class="edge">
<title>posts:id&#45;&#45;comments:post_id</title>
<path fill="none" stroke="#7f7f7f" stroke-dasharray="5,2" d="M563,-721.5C668.56,-721.5 544.44,-254.5 650,-254.5"/>
<text text-anchor="start" x="625" y="-243.3" font-family="Times,serif" font-size="14.00">0..N</text>
<text text-anchor="start" x="563" y="-710.3" font-family="Times,serif" font-size="14.00">1</text>
</g>
<!-- comments&#45;&#45;comments -->
<g id="edge5" class="edge">
<title>comments:id&#45;&#45;comments:parent_id</title>
<path fill="none" stroke="#7f7f7f" stroke-dasharray="5,2" d="M650.93,-382.55C605.56,-377.39 567,-362.66 567,-330 567,-297.34 605.56,-282.61 650.93,-277.45"/>
<text text-anchor="start" x="625.93" y="-266.25" font-family="Times,serif" font-size="14.00">0..N</text>
<text text-anchor="start" x="619.93" y="-386.35" font-family="Times,serif" font-size="14.00">{0,1}</text>
</g>
<!-- tags -->
<g id="node5" class="node">
<title>tags</title>
<polygon fill="none" stroke="black" points="369,-404.5 369,-432.5 539,-432.5 539,-404.5 369,-404.5"/>
<text text-anchor="start" x="437" y="-415.7" font-family="Helvetica,sans-Serif" font-weight="bold" font-size="16.00">tags</text>
<polygon fill="none" stroke="black" points="369,-379.5 369,-404.5 539,-404.5 539,-379.5 369,-379.5"/>
<text text-anchor="start" x="374" y="-389.3" font-family="Helvetica,sans-Serif" text-decoration="underline" font-size="14.00">id</text>
<text text-anchor="start" x="385" y="-389.3" font-family="Helvetica,sans-Serif" font-size="14.00"> </text>
<text text-anchor="start" x="389" y="-389.3" font-family="Helvetica,sans-Serif" font-size="14.00"> [INTEGER]</text>
<text text-anchor="start" x="462" y="-389.3" font-family="Helvetica,sans-Serif" font-size="14.00"> NOT NULL</text>
<polygon fill="none" stroke="black" points="369,-354.5 369,-379.5 539,-379.5 539,-354.5 369,-354.5"/>
<text text-anchor="start" x="374" y="-364.3" font-family="Helvetica,sans-Serif" font-size="14.00">name</text>
<text text-anchor="start" x="409" y="-364.3" font-family="Helvetica,sans-Serif" font-size="14.00"> </text>
<text text-anchor="start" x="413" y="-364.3" font-family="Helvetica,sans-Serif" font-size="14.00"> [VARCHAR(80)]</text>
<polygon fill="none" stroke="black" points="369,-329.5 369,-354.5 539,-354.5 539,-329.5 369,-329.5"/>
<text text-anchor="start" x="374" y="-339.3" font-family="Helvetica,sans-Serif" font-size="14.00">slug</text>
<text text-anchor="start" x="399" y="-339.3" font-family="Helvetica,sans-Serif" font-size="14.00"> </text>
<text text-anchor="start" x="403" y="-339.3" font-family="Helvetica,sans-Serif" font-size="14.00"> [VARCHAR(80)]</text>
</g>
<!-- tags&#45;&#45;post_tags -->
<g id="edge6" class="edge">
<title>tags:id&#45;&#45;post_tags:tag_id</title>
<path fill="none" stroke="#7f7f7f" stroke-dasharray="5,2" d="M540,-392.5C615.77,-392.5 581.23,-516.5 657,-516.5"/>
<text text-anchor="start" x="632" y="-505.3" font-family="Times,serif" font-size="14.00">0..N</text>
<text text-anchor="start" x="540" y="-392.55" font-family="Times,serif" font-size="14.00">1</text>
</g>
</g>
</svg>
