<?xml version="1.0" encoding="UTF-8" standalone="no"?>
<!DOCTYPE svg PUBLIC "-//W3C//DTD SVG 1.1//EN"
 "http://www.w3.org/Graphics/SVG/1.1/DTD/svg11.dtd">
<!-- Generated by graphviz version 2.43.0 (0)
 -->
<!-- Title: %3 Pages: 1 -->
<svg width="883pt" height="638pt"
 viewBox="0.00 0.00 883.00 638.00" xmlns="http://www.w3.org/2000/svg" xmlns:xlink="http://www.w3.org/1999/xlink">
<g id="graph0" class="graph" transform="scale(1 1) rotate(0) translate(4 634)">
<title>%3</title>
<polygon fill="white" stroke="transparent" points="-4,4 -4,-634 879,-634 879,4 -4,4"/>
<!-- post_tags -->
<g id="node1" class="node">
<title>post_tags</title>
<polygon fill="none" stroke="black" points="658,-523.5 658,-551.5 861,-551.5 861,-523.5 658,-523.5"/>
<text text-anchor="start" x="721.5" y="-534.7" font-family="Helvetica,sans-Serif" font-weight="bold" font-size="16.00">post_tags</text>
<polygon fill="none" stroke="black" points="658,-498.5 658,-523.5 861,-523.5 861,-498.5 658,-498.5"/>
<text text-anchor="start" x="663" y="-508.3" font-family="Helvetica,sans-Serif" text-decoration="underline" font-size="14.00">post_id</text>
<text text-anchor="start" x="707" y="-508.3" font-family="Helvetica,sans-Serif" font-size="14.00"> </text>
<text text-anchor="start" x="711" y="-508.3" font-family="Helvetica,sans-Serif" font-size="14.00"> [INTEGER]</text>
<text text-anchor="start" x="784" y="-508.3" font-family="Helvetica,sans-Serif" font-size="14.00"> NOT NULL</text>
<polygon fill="none" stroke="black" points="658,-473.5 658,-498.5 861,-498.5 861,-473.5 658,-473.5"/>
<text text-anchor="start" x="663" y="-483.3" font-family="Helvetica,sans-Serif" text-decoration="underline" font-size="14.00">tag_id</text>
<text text-anchor="start" x="700" y="-483.3" font-family="Helvetica,sans-Serif" font-size="14.00"> </text>
<text text-anchor="start" x="704" y="-483.3" font-family="Helvetica,sans-Serif" font-size="14.00"> [INTEGER]</text>
<text text-anchor="start" x="777" y="-483.3" font-family="Helvetica,sans-Serif" font-size="14.00"> NOT NULL</text>
</g>
<!-- users -->
<g id="node2" class="node">
<title>users</title>
<polygon fill="none" stroke="black" points="8.5,-328.5 8.5,-356.5 257.5,-356.5 257.5,-328.5 8.5,-328.5"/>
<text text-anchor="start" x="111.5" y="-339.7" font-family="Helvetica,sans-Serif" font-weight="bold" font-size="16.00">users</text>
<polygon fill="none" stroke="black" points="8.5,-303.5 8.5,-328.5 257.5,-328.5 257.5,-303.5 8.5,-303.5"/>
<text text-anchor="start" x="13.5" y="-313.3" font-family="Helvetica,sans-Serif" text-decoration="underline" font-size="14.00">id</text>
<text text-anchor="start" x="24.5" y="-313.3" font-family="Helvetica,sans-Serif" font-size="14.00"> </text>
<text text-anchor="start" x="28.5" y="-313.3" font-family="Helvetica,sans-Serif" font-size="14.00"> [INTEGER]</text>
<text text-anchor="start" x="101.5" y="-313.3" font-family="Helvetica,sans-Serif" font-size="14.00"> NOT NULL</text>
<polygon fill="none" stroke="black" points="8.5,-278.5 8.5,-303.5 257.5,-303.5 257.5,-278.5 8.5,-278.5"/>
<text text-anchor="start" x="13.5" y="-288.3" font-family="Helvetica,sans-Serif" font-size="14.00">activation_key</text>
<text text-anchor="start" x="99.5" y="-288.3" font-family="Helvetica,sans-Serif" font-size="14.00"> </text>
<text text-anchor="start" x="103.5" y="-288.3" font-family="Helvetica,sans-Serif" font-size="14.00"> [VARCHAR(80)]</text>
<polygon fill="none" stroke="black" points="8.5,-253.5 8.5,-278.5 257.5,-278.5 257.5,-253.5 8.5,-253.5"/>
<text text-anchor="start" x="13.5" y="-263.3" font-family="Helvetica,sans-Serif" font-size="14.00">date_joined</text>
<text text-anchor="start" x="83.5" y="-263.3" font-family="Helvetica,sans-Serif" font-size="14.00"> </text>
<text text-anchor="start" x="87.5" y="-263.3" font-family="Helvetica,sans-Serif" font-size="14.00"> [DATETIME]</text>
<polygon fill="none" stroke="black" points="8.5,-228.5 8.5,-253.5 257.5,-253.5 257.5,-228.5 8.5,-228.5"/>
<text text-anchor="start" x="13.5" y="-238.3" font-family="Helvetica,sans-Serif" font-size="14.00">email</text>
<text text-anchor="start" x="47.5" y="-238.3" font-family="Helvetica,sans-Serif" font-size="14.00"> </text>
<text text-anchor="start" x="51.5" y="-238.3" font-family="Helvetica,sans-Serif" font-size="14.00"> [VARCHAR(150)]</text>
<text text-anchor="start" x="160.5" y="-238.3" font-family="Helvetica,sans-Serif" font-size="14.00"> NOT NULL</text>
<polygon fill="none" stroke="black" points="8.5,-203.5 8.5,-228.5 257.5,-228.5 257.5,-203.5 8.5,-203.5"/>
<text text-anchor="start" x="13.5" y="-213.3" font-family="Helvetica,sans-Serif" font-size="14.00">email_alerts</text>
<text text-anchor="start" x="87.5" y="-213.3" font-family="Helvetica,sans-Serif" font-size="14.00"> </text>
<text text-anchor="start" x="91.5" y="-213.3" font-family="Helvetica,sans-Serif" font-size="14.00"> [BOOLEAN]</text>
<polygon fill="none" stroke="black" points="8.5,-178.5 8.5,-203.5 257.5,-203.5 257.5,-178.5 8.5,-178.5"/>
<text text-anchor="start" x="13.5" y="-188.3" font-family="Helvetica,sans-Serif" font-size="14.00">followers</text>
<text text-anchor="start" x="67.5" y="-188.3" font-family="Helvetica,sans-Serif" font-size="14.00"> </text>
<text text-anchor="start" x="71.5" y="-188.3" font-family="Helvetica,sans-Serif" font-size="14.00"> [TEXT]</text>
<polygon fill="none" stroke="black" points="8.5,-153.5 8.5,-178.5 257.5,-178.5 257.5,-153.5 8.5,-153.5"/>
<text text-anchor="start" x="13.5" y="-163.3" font-family="Helvetica,sans-Serif" font-size="14.00">following</text>
<text text-anchor="start" x="66.5" y="-163.3" font-family="Helvetica,sans-Serif" font-size="14.00"> </text>
<text text-anchor="start" x="70.5" y="-163.3" font-family="Helvetica,sans-Serif" font-size="14.00"> [TEXT]</text>
<polygon fill="none" stroke="black" points="8.5,-128.5 8.5,-153.5 257.5,-153.5 257.5,-128.5 8.5,-128.5"/>
<text text-anchor="start" x="13.5" y="-138.3" font-family="Helvetica,sans-Serif" font-size="14.00">karma</text>
<text text-anchor="start" x="52.5" y="-138.3" font-family="Helvetica,sans-Serif" font-size="14.00"> </text>
<text text-anchor="start" x="56.5" y="-138.3" font-family="Helvetica,sans-Serif" font-size="14.00"> [INTEGER]</text>
<polygon fill="none" stroke="black" points="8.5,-103.5 8.5,-128.5 257.5,-128.5 257.5,-103.5 8.5,-103.5"/>
<text text-anchor="start" x="13.5" y="-113.3" font-family="Helvetica,sans-Serif" font-size="14.00">openid</text>
<text text-anchor="start" x="54.5" y="-113.3" font-family="Helvetica,sans-Serif" font-size="14.00"> </text>
<text text-anchor="start" x="58.5" y="-113.3" font-family="Helvetica,sans-Serif" font-size="14.00"> [VARCHAR(80)]</text>
<polygon fill="none" stroke="black" points="8.5,-78.5 8.5,-103.5 257.5,-103.5 257.5,-78.5 8.5,-78.5"/>
<text text-anchor="start" x="13.5" y="-88.3" font-family="Helvetica,sans-Serif" font-size="14.00">password</text>
<text text-anchor="start" x="71.5" y="-88.3" font-family="Helvetica,sans-Serif" font-size="14.00"> </text>
<text text-anchor="start" x="75.5" y="-88.3" font-family="Helvetica,sans-Serif" font-size="14.00"> [VARCHAR(80)]</text>
<polygon fill="none" stroke="black" points="8.5,-53.5 8.5,-78.5 257.5,-78.5 257.5,-53.5 8.5,-53.5"/>
<text text-anchor="start" x="13.5" y="-63.3" font-family="Helvetica,sans-Serif" font-size="14.00">receive_email</text>
<text text-anchor="start" x="98.5" y="-63.3" font-family="Helvetica,sans-Serif" font-size="14.00"> </text>
<text text-anchor="start" x="102.5" y="-63.3" font-family="Helvetica,sans-Serif" font-size="14.00"> [BOOLEAN]</text>
<polygon fill="none" stroke="black" points="8.5,-28.5 8.5,-53.5 257.5,-53.5 257.5,-28.5 8.5,-28.5"/>
<text text-anchor="start" x="13.5" y="-38.3" font-family="Helvetica,sans-Serif" font-size="14.00">role</text>
<text text-anchor="start" x="36.5" y="-38.3" font-family="Helvetica,sans-Serif" font-size="14.00"> </text>
<text text-anchor="start" x="40.5" y="-38.3" font-family="Helvetica,sans-Serif" font-size="14.00"> [INTEGER]</text>
<polygon fill="none" stroke="black" points="8.5,-3.5 8.5,-28.5 257.5,-28.5 257.5,-3.5 8.5,-3.5"/>
<text text-anchor="start" x="13.5" y="-13.3" font-family="Helvetica,sans-Serif" font-size="14.00">username</text>
<text text-anchor="start" x="74.5" y="-13.3" font-family="Helvetica,sans-Serif" font-size="14.00"> </text>
<text text-anchor="start" x="78.5" y="-13.3" font-family="Helvetica,sans-Serif" font-size="14.00"> [VARCHAR(60)]</text>
<text text-anchor="start" x="180.5" y="-13.3" font-family="Helvetica,sans-Serif" font-size="14.00"> NOT NULL</text>
</g>
<!-- posts -->
<g id="node3" class="node">
<title>posts</title>
<polygon fill="none" stroke="black" points="346,-468.5 346,-496.5 562,-496.5 562,-468.5 346,-468.5"/>
<text text-anchor="start" x="432.5" y="-479.7" font-family="Helvetica,sans-Serif" font-weight="bold" font-size="16.00">posts</text>
<polygon fill="none" stroke="black" points="346,-443.5 346,-468.5 562,-468.5 562,-443.5 346,-443.5"/>
<text text-anchor="start" x="351" y="-453.3" font-family="Helvetica,sans-Serif" text-decoration="underline" font-size="14.00">id</text>
<text text-anchor="start" x="362" y="-453.3" font-family="Helvetica,sans-Serif" font-size="14.00"> </text>
<text text-anchor="start" x="366" y="-453.3" font-family="Helvetica,sans-Serif" font-size="14.00"> [INTEGER]</text>
<text text-anchor="start" x="439" y="-453.3" font-family="Helvetica,sans-Serif" font-size="14.00"> NOT NULL</text>
<polygon fill="none" stroke="black" points="346,-418.5 346,-443.5 562,-443.5 562,-418.5 346,-418.5"/>
<text text-anchor="start" x="351" y="-428.3" font-family="Helvetica,sans-Serif" font-size="14.00">access</text>
<text text-anchor="start" x="394" y="-428.3" font-family="Helvetica,sans-Serif" font-size="14.00"> </text>
<text text-anchor="start" x="398" y="-428.3" font-family="Helvetica,sans-Serif" font-size="14.00"> [INTEGER]</text>
<polygon fill="none" stroke="black" points="346,-393.5 346,-418.5 562,-418.5 562,-393.5 346,-393.5"/>
<text text-anchor="start" x="351" y="-403.3" font-family="Helvetica,sans-Serif" font-size="14.00">author_id</text>
<text text-anchor="start" x="408" y="-403.3" font-family="Helvetica,sans-Serif" font-size="14.00"> </text>
<text text-anchor="start" x="412" y="-403.3" font-family="Helvetica,sans-Serif" font-size="14.00"> [INTEGER]</text>
<text text-anchor="start" x="485" y="-403.3" font-family="Helvetica,sans-Serif" font-size="14.00"> NOT NULL</text>
<polygon fill="none" stroke="black" points="346,-368.5 346,-393.5 562,-393.5 562,-368.5 346,-368.5"/>
<text text-anchor="start" x="351" y="-378.3" font-family="Helvetica,sans-Serif" font-size="14.00">date_created</text>
<text text-anchor="start" x="430" y="-378.3" font-family="Helvetica,sans-Serif" font-size="14.00"> </text>
<text text-anchor="start" x="434" y="-378.3" font-family="Helvetica,sans-Serif" font-size="14.00"> [DATETIME]</text>
<polygon fill="none" stroke="black" points="346,-343.5 346,-368.5 562,-368.5 562,-343.5 346,-343.5"/>
<text text-anchor="start" x="351" y="-353.3" font-family="Helvetica,sans-Serif" font-size="14.00">description</text>
<text text-anchor="start" x="417" y="-353.3" font-family="Helvetica,sans-Serif" font-size="14.00"> </text>
<text text-anchor="start" x="421" y="-353.3" font-family="Helvetica,sans-Serif" font-size="14.00"> [TEXT]</text>
<polygon fill="none" stroke="black" points="346,-318.5 346,-343.5 562,-343.5 562,-318.5 346,-318.5"/>
<text text-anchor="start" x="351" y="-328.3" font-family="Helvetica,sans-Serif" font-size="14.00">link</text>
<text text-anchor="start" x="372" y="-328.3" font-family="Helvetica,sans-Serif" font-size="14.00"> </text>
<text text-anchor="start" x="376" y="-328.3" font-family="Helvetica,sans-Serif" font-size="14.00"> [VARCHAR(250)]</text>
<polygon fill="none" stroke="black" points="346,-293.5 346,-318.5 562,-318.5 562,-293.5 346,-293.5"/>
<text text-anchor="start" x="351" y="-303.3" font-family="Helvetica,sans-Serif" font-size="14.00">num_comments</text>
<text text-anchor="start" x="450" y="-303.3" font-family="Helvetica,sans-Serif" font-size="14.00"> </text>
<text text-anchor="start" x="454" y="-303.3" font-family="Helvetica,sans-Serif" font-size="14.00"> [INTEGER]</text>
<polygon fill="none" stroke="black" points="346,-268.5 346,-293.5 562,-293.5 562,-268.5 346,-268.5"/>
<text text-anchor="start" x="351" y="-278.3" font-family="Helvetica,sans-Serif" font-size="14.00">score</text>
<text text-anchor="start" x="385" y="-278.3" font-family="Helvetica,sans-Serif" font-size="14.00"> </text>
<text text-anchor="start" x="389" y="-278.3" font-family="Helvetica,sans-Serif" font-size="14.00"> [INTEGER]</text>
<polygon fill="none" stroke="black" points="346,-243.5 346,-268.5 562,-268.5 562,-243.5 346,-243.5"/>
<text text-anchor="start" x="351" y="-253.3" font-family="Helvetica,sans-Serif" font-size="14.00">tags</text>
<text text-anchor="start" x="377" y="-253.3" font-family="Helvetica,sans-Serif" font-size="14.00"> </text>
<text text-anchor="start" x="381" y="-253.3" font-family="Helvetica,sans-Serif" font-size="14.00"> [TEXT]</text>
<polygon fill="none" stroke="black" points="346,-218.5 346,-243.5 562,-243.5 562,-218.5 346,-218.5"/>
<text text-anchor="start" x="351" y="-228.3" font-family="Helvetica,sans-Serif" font-size="14.00">title</text>
<text text-anchor="start" x="373" y="-228.3" font-family="Helvetica,sans-Serif" font-size="14.00"> </text>
<text text-anchor="start" x="377" y="-228.3" font-family="Helvetica,sans-Serif" font-size="14.00"> [VARCHAR(200)]</text>
<polygon fill="none" stroke="black" points="346,-193.5 346,-218.5 562,-218.5 562,-193.5 346,-193.5"/>
<text text-anchor="start" x="351" y="-203.3" font-family="Helvetica,sans-Serif" font-size="14.00">votes</text>
<text text-anchor="start" x="384" y="-203.3" font-family="Helvetica,sans-Serif" font-size="14.00"> </text>
<text text-anchor="start" x="388" y="-203.3" font-family="Helvetica,sans-Serif" font-size="14.00"> [TEXT]</text>
</g>
<!-- users&#45;&#45;posts -->
<g id="edge1" class="edge">
<title>users&#45;&#45;posts</title>
<path fill="none" stroke="#7f7f7f" stroke-dasharray="5,2" d="M265.3,-248.56C289.36,-260.99 314.3,-273.87 337.84,-286.03"/>
<text text-anchor="start" x="312.84" y="-274.83" font-family="Times,serif" font-size="14.00">0..N</text>
<text text-anchor="start" x="265.3" y="-237.36" font-family="Times,serif" font-size="14.00">1</text>
</g>
<!-- comments -->
<g id="node4" class="node">
<title>comments</title>
<polygon fill="none" stroke="black" points="651,-339.5 651,-367.5 867,-367.5 867,-339.5 651,-339.5"/>
<text text-anchor="start" x="718.5" y="-350.7" font-family="Helvetica,sans-Serif" font-weight="bold" font-size="16.00">comments</text>
<polygon fill="none" stroke="black" points="651,-314.5 651,-339.5 867,-339.5 867,-314.5 651,-314.5"/>
<text text-anchor="start" x="656" y="-324.3" font-family="Helvetica,sans-Serif" text-decoration="underline" font-size="14.00">id</text>
<text text-anchor="start" x="667" y="-324.3" font-family="Helvetica,sans-Serif" font-size="14.00"> </text>
<text text-anchor="start" x="671" y="-324.3" font-family="Helvetica,sans-Serif" font-size="14.00"> [INTEGER]</text>
<text text-anchor="start" x="744" y="-324.3" font-family="Helvetica,sans-Serif" font-size="14.00"> NOT NULL</text>
<polygon fill="none" stroke="black" points="651,-289.5 651,-314.5 867,-314.5 867,-289.5 651,-289.5"/>
<text text-anchor="start" x="656" y="-299.3" font-family="Helvetica,sans-Serif" font-size="14.00">author_id</text>
<text text-anchor="start" x="713" y="-299.3" font-family="Helvetica,sans-Serif" font-size="14.00"> </text>
<text text-anchor="start" x="717" y="-299.3" font-family="Helvetica,sans-Serif" font-size="14.00"> [INTEGER]</text>
<text text-anchor="start" x="790" y="-299.3" font-family="Helvetica,sans-Serif" font-size="14.00"> NOT NULL</text>
<polygon fill="none" stroke="black" points="651,-264.5 651,-289.5 867,-289.5 867,-264.5 651,-264.5"/>
<text text-anchor="start" x="656" y="-274.3" font-family="Helvetica,sans-Serif" font-size="14.00">comment</text>
<text text-anchor="start" x="714" y="-274.3" font-family="Helvetica,sans-Serif" font-size="14.00"> </text>
<text text-anchor="start" x="718" y="-274.3" font-family="Helvetica,sans-Serif" font-size="14.00"> [TEXT]</text>
<polygon fill="none" stroke="black" points="651,-239.5 651,-264.5 867,-264.5 867,-239.5 651,-239.5"/>
<text text-anchor="start" x="656" y="-249.3" font-family="Helvetica,sans-Serif" font-size="14.00">date_created</text>
<text text-anchor="start" x="735" y="-249.3" font-family="Helvetica,sans-Serif" font-size="14.00"> </text>
<text text-anchor="start" x="739" y="-249.3" font-family="Helvetica,sans-Serif" font-size="14.00"> [DATETIME]</text>
<polygon fill="none" stroke="black" points="651,-214.5 651,-239.5 867,-239.5 867,-214.5 651,-214.5"/>
<text text-anchor="start" x="656" y="-224.3" font-family="Helvetica,sans-Serif" font-size="14.00">parent_id</text>
<text text-anchor="start" x="713" y="-224.3" font-family="Helvetica,sans-Serif" font-size="14.00"> </text>
<text text-anchor="start" x="717" y="-224.3" font-family="Helvetica,sans-Serif" font-size="14.00"> [INTEGER]</text>
<polygon fill="none" stroke="black" points="651,-189.5 651,-214.5 867,-214.5 867,-189.5 651,-189.5"/>
<text text-anchor="start" x="656" y="-199.3" font-family="Helvetica,sans-Serif" font-size="14.00">post_id</text>
<text text-anchor="start" x="700" y="-199.3" font-family="Helvetica,sans-Serif" font-size="14.00"> </text>
<text text-anchor="start" x="704" y="-199.3" font-family="Helvetica,sans-Serif" font-size="14.00"> [INTEGER]</text>
<text text-anchor="start" x="777" y="-199.3" font-family="Helvetica,sans-Serif" font-size="14.00"> NOT NULL</text>
<polygon fill="none" stroke="black" points="651,-164.5 651,-189.5 867,-189.5 867,-164.5 651,-164.5"/>
<text text-anchor="start" x="656" y="-174.3" font-family="Helvetica,sans-Serif" font-size="14.00">score</text>
<text text-anchor="start" x="690" y="-174.3" font-family="Helvetica,sans-Serif" font-size="14.00"> </text>
<text text-anchor="start" x="694" y="-174.3" font-family="Helvetica,sans-Serif" font-size="14.00"> [INTEGER]</text>
<polygon fill="none" stroke="black" points="651,-139.5 651,-164.5 867,-164.5 867,-139.5 651,-139.5"/>
<text text-anchor="start" x="656" y="-149.3" font-family="Helvetica,sans-Serif" font-size="14.00">votes</text>
<text text-anchor="start" x="689" y="-149.3" font-family="Helvetica,sans-Serif" font-size="14.00"> </text>
<text text-anchor="start" x="693" y="-149.3" font-family="Helvetica,sans-Serif" font-size="14.00"> [TEXT]</text>
</g>
<!-- users&#45;&#45;comments -->
<g id="edge2" class="edge">
<title>users&#45;&#45;comments</title>
<path fill="none" stroke="#7f7f7f" stroke-dasharray="5,2" d="M265.02,-167.96C352.27,-162.7 468.89,-161.56 570,-180.5 594.18,-185.03 619.24,-192.57 642.89,-201.13"/>
<text text-anchor="start" x="617.89" y="-189.93" font-family="Times,serif" font-size="14.00">0..N</text>
<text text-anchor="start" x="265.02" y="-156.76" font-family="Times,serif" font-size="14.00">1</text>
</g>
<!-- posts&#45;&#45;post_tags -->
<g id="edge3" class="edge">
<title>posts&#45;&#45;post_tags</title>
<path fill="none" stroke="#7f7f7f" stroke-dasharray="5,2" d="M570.42,-409.11C606.87,-429.21 646.29,-450.93 679.54,-469.26"/>
<text text-anchor="start" x="654.54" y="-458.06" font-family="Times,serif" font-size="14.00">0..N</text>
<text text-anchor="start" x="570.42" y="-397.91" font-family="Times,serif" font-size="14.00">1</text>
</g>
<!-- posts&#45;&#45;comments -->
<g id="edge4" class="edge">
<title>posts&#45;&#45;comments</title>
<path fill="none" stroke="#7f7f7f" stroke-dasharray="5,2" d="M570.42,-310.46C594.16,-303.25 619.17,-295.65 642.91,-288.45"/>
<text text-anchor="start" x="617.91" y="-277.25" font-family="Times,serif" font-size="14.00">0..N</text>
<text text-anchor="start" x="570.42" y="-299.26" font-family="Times,serif" font-size="14.00">1</text>
</g>
<!-- comments&#45;&#45;comments -->
<g id="edge5" class="edge">
<title>comments&#45;&#45;comments</title>
<path fill="none" stroke="#7f7f7f" stroke-dasharray="5,2" d="M736.35,-371.94C741.06,-382.72 748.61,-389.5 759,-389.5 769.39,-389.5 776.94,-382.72 781.65,-371.94"/>
<text text-anchor="start" x="756.65" y="-375.74" font-family="Times,serif" font-size="14.00">0..N</text>
<text text-anchor="start" x="705.35" y="-375.74" font-family="Times,serif" font-size="14.00">{0,1}</text>
</g>
<!-- tags -->
<g id="node5" class="node">
<title>tags</title>
<polygon fill="none" stroke="black" points="369,-597.5 369,-625.5 539,-625.5 539,-597.5 369,-597.5"/>
<text text-anchor="start" x="437" y="-608.7" font-family="Helvetica,sans-Serif" font-weight="bold" font-size="16.00">tags</text>
<polygon fill="none" stroke="black" points="369,-572.5 369,-597.5 539,-597.5 539,-572.5 369,-572.5"/>
<text text-anchor="start" x="374" y="-582.3" font-family="Helvetica,sans-Serif" text-decoration="underline" font-size="14.00">id</text>
<text text-anchor="start" x="385" y="-582.3" font-family="Helvetica,sans-Serif" font-size="14.00"> </text>
<text text-anchor="start" x="389" y="-582.3" font-family="Helvetica,sans-Serif" font-size="14.00"> [INTEGER]</text>
<text text-anchor="start" x="462" y="-582.3" font-family="Helvetica,sans-Serif" font-size="14.00"> NOT NULL</text>
<polygon fill="none" stroke="black" points="369,-547.5 369,-572.5 539,-572.5 539,-547.5 369,-547.5"/>
<text text-anchor="start" x="374" y="-557.3" font-family="Helvetica,sans-Serif" font-size="14.00">name</text>
<text text-anchor="start" x="409" y="-557.3" font-family="Helvetica,sans-Serif" font-size="14.00"> </text>
<text text-anchor="start" x="413" y="-557.3" font-family="Helvetica,sans-Serif" font-size="14.00"> [VARCHAR(80)]</text>
<polygon fill="none" stroke="black" points="369,-522.5 369,-547.5 539,-547.5 539,-522.5 369,-522.5"/>
<text text-anchor="start" x="374" y="-532.3" font-family="Helvetica,sans-Serif" font-size="14.00">slug</text>
<text text-anchor="start" x="399" y="-532.3" font-family="Helvetica,sans-Serif" font-size="14.00"> </text>
<text text-anchor="start" x="403" y="-532.3" font-family="Helvetica,sans-Serif" font-size="14.00"> [VARCHAR(80)]</text>
</g>
<!-- tags&#45;&#45;post_tags -->
<g id="edge6" class="edge">
<title>tags&#45;&#45;post_tags</title>
<path fill="none" stroke="#7f7f7f" stroke-dasharray="5,2" d="M547.14,-555.65C579.35,-549.05 615.82,-541.59 649.25,-534.75"/>
<text text-anchor="start" x="624.25" y="-523.55" font-family="Times,serif" font-size="14.00">0..N</text>
<text text-anchor="start" x="547.14" y="-544.45" font-family="Times,serif" font-size="14.00">1</text>
</g>
</g>
</svg>
